# Blender v2.92.0 OBJ File: 'Cypres.blend'
# www.blender.org
mtllib Cypres.mtl
o Cube
v -0.354875 0.329713 0.233101
v -0.333564 0.193020 0.254309
v -0.221253 0.329713 0.306364
v -0.241149 0.193020 0.323750
v -0.400299 0.329713 0.364084
v -0.384566 0.193020 0.339067
v -0.270840 0.329713 0.429716
v -0.295072 0.193020 0.403153
v -0.396523 0.572966 0.190935
v -0.205481 0.572960 0.270059
v -0.434038 0.572949 0.367435
v -0.245624 0.572943 0.441739
v -0.388761 0.997490 0.180810
v -0.184118 1.000992 0.279851
v -0.460064 0.996361 0.347011
v -0.240483 0.995003 0.456280
v -0.383695 1.337641 0.232969
v -0.246899 1.341991 0.263262
v -0.398789 1.331082 0.327520
v -0.249952 1.331366 0.368296
v -0.321796 1.413742 0.312173
vt 0.625000 0.500000
vt 0.625000 0.250000
vt 0.625000 0.250000
vt 0.625000 0.500000
vt 0.375000 0.750000
vt 0.625000 0.750000
vt 0.625000 1.000000
vt 0.375000 1.000000
vt 0.375000 0.000000
vt 0.625000 0.000000
vt 0.375000 0.250000
vt 0.125000 0.500000
vt 0.375000 0.500000
vt 0.125000 0.750000
vt 0.625000 1.000000
vt 0.625000 0.750000
vt 0.625000 0.750000
vt 0.625000 1.000000
vt 0.625000 0.000000
vt 0.625000 0.500000
vt 0.625000 0.250000
vt 0.625000 0.250000
vt 0.625000 0.500000
vt 0.625000 0.000000
vt 0.625000 0.000000
vt 0.625000 0.250000
vt 0.625000 0.750000
vt 0.625000 1.000000
vt 0.625000 1.000000
vt 0.625000 0.500000
vt 0.625000 0.750000
vn -0.9518 -0.1680 -0.2567
vn 0.8796 -0.1571 0.4491
vn -0.5043 -0.1449 0.8513
vn 0.0000 -1.0000 -0.0000
vn 0.5303 -0.1158 -0.8399
vn -0.9067 -0.1172 -0.4052
vn 0.9631 -0.0377 0.2664
vn 0.9546 -0.0659 0.2903
vn -0.4027 -0.0360 0.9146
vn 0.4217 -0.1225 -0.8984
vn -0.9447 0.1079 -0.3098
vn -0.9526 -0.0314 -0.3026
vn 0.4106 -0.0144 -0.9117
vn -0.4103 -0.0038 0.9119
vn -0.2438 0.3918 0.8872
vn 0.3516 0.0785 -0.9329
vn -0.3710 0.1747 0.9121
vn 0.9677 0.1360 0.2123
vn 0.7191 0.6889 0.0906
vn -0.7364 0.6728 -0.0709
vn 0.1434 0.6553 -0.7417
usemtl Material
s off
f 1/1/1 5/2/1 11/3/1 9/4/1
f 4/5/2 3/6/2 7/7/2 8/8/2
f 8/9/3 7/10/3 5/2/3 6/11/3
f 6/12/4 2/13/4 4/5/4 8/14/4
f 2/13/5 1/1/5 3/6/5 4/5/5
f 6/11/6 5/2/6 1/1/6 2/13/6
f 12/15/7 10/16/7 14/17/7 16/18/7
f 7/7/8 3/6/8 10/16/8 12/15/8
f 5/2/9 7/10/9 12/19/9 11/3/9
f 3/6/10 1/1/10 9/4/10 10/16/10
f 13/20/11 15/21/11 19/22/11 17/23/11
f 9/4/12 11/3/12 15/21/12 13/20/12
f 10/16/13 9/4/13 13/20/13 14/17/13
f 11/3/14 12/19/14 16/24/14 15/21/14
f 19/22/15 20/25/15 21/26/15
f 14/17/16 13/20/16 17/23/16 18/27/16
f 15/21/17 16/24/17 20/25/17 19/22/17
f 16/18/18 14/17/18 18/27/18 20/28/18
f 20/28/19 18/27/19 21/29/19
f 17/23/20 19/22/20 21/30/20
f 18/27/21 17/23/21 21/31/21
o Cube.001
v -0.977963 0.000000 1.157042
v -0.748060 0.193165 0.890235
v -0.977963 0.000000 -1.982106
v -0.748060 0.193165 -1.715299
v 1.991656 0.000000 1.157042
v 1.761753 0.193165 0.890235
v 1.991656 0.000000 -1.982106
v 1.761753 0.193165 -1.715299
vt 0.375000 0.000000
vt 0.625000 0.000000
vt 0.625000 0.250000
vt 0.375000 0.250000
vt 0.625000 0.500000
vt 0.375000 0.500000
vt 0.625000 0.750000
vt 0.375000 0.750000
vt 0.625000 1.000000
vt 0.375000 1.000000
vt 0.125000 0.500000
vt 0.125000 0.750000
vt 0.875000 0.500000
vt 0.875000 0.750000
vn -0.6433 0.7656 0.0000
vn 0.0000 0.8100 -0.5864
vn 0.6433 0.7656 0.0000
vn 0.0000 0.8100 0.5864
vn 0.0000 -1.0000 0.0000
vn 0.0000 1.0000 0.0000
usemtl None
s off
f 22/32/22 23/33/22 25/34/22 24/35/22
f 24/35/23 25/34/23 29/36/23 28/37/23
f 28/37/24 29/36/24 27/38/24 26/39/24
f 26/39/25 27/38/25 23/40/25 22/41/25
f 24/42/26 28/37/26 26/39/26 22/43/26
f 29/36/27 25/44/27 23/45/27 27/38/27
o Cube.002
v 0.253478 0.323442 0.257402
v 0.252363 0.192832 0.275951
v 0.319334 0.320766 0.321641
v 0.289060 0.191647 0.333059
v 0.157593 0.329875 0.340858
v 0.174081 0.197847 0.327569
v 0.223920 0.327093 0.399483
v 0.211108 0.196588 0.380738
v 0.254749 0.555859 0.220991
v 0.360985 0.551121 0.295529
v 0.143347 0.563577 0.336065
v 0.249880 0.558772 0.407058
v 0.287491 0.960549 0.209196
v 0.394739 0.959329 0.298640
v 0.155499 0.968173 0.313598
v 0.268895 0.962086 0.411667
v 0.284443 1.286988 0.240327
v 0.373170 1.286819 0.275833
v 0.228182 1.284671 0.302614
v 0.320801 1.280516 0.346587
v 0.297577 1.360018 0.299617
vt 0.625000 0.500000
vt 0.625000 0.250000
vt 0.625000 0.250000
vt 0.625000 0.500000
vt 0.375000 0.750000
vt 0.625000 0.750000
vt 0.625000 1.000000
vt 0.375000 1.000000
vt 0.375000 0.000000
vt 0.625000 0.000000
vt 0.375000 0.250000
vt 0.125000 0.500000
vt 0.375000 0.500000
vt 0.125000 0.750000
vt 0.625000 1.000000
vt 0.625000 0.750000
vt 0.625000 0.750000
vt 0.625000 1.000000
vt 0.625000 0.000000
vt 0.625000 0.500000
vt 0.625000 0.250000
vt 0.625000 0.250000
vt 0.625000 0.500000
vt 0.625000 0.000000
vt 0.625000 0.000000
vt 0.625000 0.250000
vt 0.625000 0.750000
vt 0.625000 1.000000
vt 0.625000 1.000000
vt 0.625000 0.500000
vt 0.625000 0.750000
vn -0.6923 -0.0826 -0.7169
vn 0.5772 -0.1186 0.8079
vn -0.7328 -0.0925 0.6741
vn -0.0545 -0.9984 0.0143
vn 0.7508 -0.1645 -0.6397
vn -0.6141 -0.0517 -0.7875
vn 0.6858 -0.0515 0.7260
vn 0.6717 -0.0687 0.7376
vn -0.5996 0.0103 0.8002
vn 0.6153 -0.1613 -0.7716
vn -0.6584 0.0947 -0.7466
vn -0.6695 0.0057 -0.7428
vn 0.6071 -0.0581 -0.7925
vn -0.6077 0.0410 0.7931
vn -0.3817 0.3850 0.8403
vn 0.5375 0.0310 -0.8427
vn -0.5487 0.2048 0.8106
vn 0.7160 0.0610 0.6955
vn 0.6671 0.5136 0.5395
vn -0.6271 0.5558 -0.5457
vn 0.3073 0.5659 -0.7651
usemtl Material.001
s off
f 30/46/28 34/47/28 40/48/28 38/49/28
f 33/50/29 32/51/29 36/52/29 37/53/29
f 37/54/30 36/55/30 34/47/30 35/56/30
f 35/57/31 31/58/31 33/50/31 37/59/31
f 31/58/32 30/46/32 32/51/32 33/50/32
f 35/56/33 34/47/33 30/46/33 31/58/33
f 41/60/34 39/61/34 43/62/34 45/63/34
f 36/52/35 32/51/35 39/61/35 41/60/35
f 34/47/36 36/55/36 41/64/36 40/48/36
f 32/51/37 30/46/37 38/49/37 39/61/37
f 42/65/38 44/66/38 48/67/38 46/68/38
f 38/49/39 40/48/39 44/66/39 42/65/39
f 39/61/40 38/49/40 42/65/40 43/62/40
f 40/48/41 41/64/41 45/69/41 44/66/41
f 48/67/42 49/70/42 50/71/42
f 43/62/43 42/65/43 46/68/43 47/72/43
f 44/66/44 45/69/44 49/70/44 48/67/44
f 45/63/45 43/62/45 47/72/45 49/73/45
f 49/73/46 47/72/46 50/74/46
f 46/68/47 48/67/47 50/75/47
f 47/72/48 46/68/48 50/76/48
o Cube.003
v 1.004982 0.311644 -1.264087
v 1.025041 0.199575 -1.286340
v 1.082464 0.311644 -1.393263
v 1.093809 0.199575 -1.378934
v 1.104711 0.311644 -1.247196
v 1.086626 0.199575 -1.256574
v 1.175453 0.311644 -1.371420
v 1.150665 0.199575 -1.345693
v 0.965199 0.511078 -1.220474
v 1.055256 0.511073 -1.400719
v 1.102817 0.511065 -1.218368
v 1.188617 0.511060 -1.395485
v 0.958071 0.859130 -1.225486
v 1.066089 0.862001 -1.421038
v 1.082749 0.858205 -1.192140
v 1.201078 0.857092 -1.402487
v 1.000942 1.138007 -1.238942
v 1.044107 1.141574 -1.363437
v 1.075347 1.132630 -1.242174
v 1.128633 1.132863 -1.378982
v 1.073442 1.200401 -1.306628
vt 0.625000 0.500000
vt 0.625000 0.250000
vt 0.625000 0.250000
vt 0.625000 0.500000
vt 0.375000 0.750000
vt 0.625000 0.750000
vt 0.625000 1.000000
vt 0.375000 1.000000
vt 0.375000 0.000000
vt 0.625000 0.000000
vt 0.375000 0.250000
vt 0.125000 0.500000
vt 0.375000 0.500000
vt 0.125000 0.750000
vt 0.625000 1.000000
vt 0.625000 0.750000
vt 0.625000 0.750000
vt 0.625000 1.000000
vt 0.625000 0.000000
vt 0.625000 0.500000
vt 0.625000 0.250000
vt 0.625000 0.250000
vt 0.625000 0.500000
vt 0.625000 0.000000
vt 0.625000 0.000000
vt 0.625000 0.250000
vt 0.625000 0.750000
vt 0.625000 1.000000
vt 0.625000 1.000000
vt 0.625000 0.500000
vt 0.625000 0.750000
vn -0.0784 -0.1861 0.9794
vn 0.3391 -0.1852 -0.9224
vn 0.8391 -0.1218 0.5301
vn 0.0000 -1.0000 0.0000
vn -0.8309 -0.0970 -0.5479
vn -0.2752 -0.1367 0.9516
vn 0.0874 -0.0419 -0.9953
vn 0.1184 -0.0741 -0.9902
vn 0.8870 -0.0306 0.4608
vn -0.8746 -0.1040 -0.4736
vn -0.1447 0.1219 0.9819
vn -0.1340 -0.0355 0.9903
vn -0.8845 -0.0122 -0.4663
vn 0.8847 -0.0032 0.4661
vn 0.8732 0.3486 0.3407
vn -0.9027 0.0674 -0.4250
vn 0.8865 0.1498 0.4379
vn 0.0227 0.1483 -0.9887
vn -0.0565 0.7080 -0.7040
vn 0.0810 0.6881 0.7211
vn -0.7533 0.6109 -0.2437
usemtl Material.002
s off
f 51/77/49 55/78/49 61/79/49 59/80/49
f 54/81/50 53/82/50 57/83/50 58/84/50
f 58/85/51 57/86/51 55/78/51 56/87/51
f 56/88/52 52/89/52 54/81/52 58/90/52
f 52/89/53 51/77/53 53/82/53 54/81/53
f 56/87/54 55/78/54 51/77/54 52/89/54
f 62/91/55 60/92/55 64/93/55 66/94/55
f 57/83/56 53/82/56 60/92/56 62/91/56
f 55/78/57 57/86/57 62/95/57 61/79/57
f 53/82/58 51/77/58 59/80/58 60/92/58
f 63/96/59 65/97/59 69/98/59 67/99/59
f 59/80/60 61/79/60 65/97/60 63/96/60
f 60/92/61 59/80/61 63/96/61 64/93/61
f 61/79/62 62/95/62 66/100/62 65/97/62
f 69/98/63 70/101/63 71/102/63
f 64/93/64 63/96/64 67/99/64 68/103/64
f 65/97/65 66/100/65 70/101/65 69/98/65
f 66/94/66 64/93/66 68/103/66 70/104/66
f 70/104/67 68/103/67 71/105/67
f 67/99/68 69/98/68 71/106/68
f 68/103/69 67/99/69 71/107/69
o Cube.004
v 0.749344 0.303704 0.264323
v 0.760385 0.202455 0.278106
v 0.826837 0.303704 0.310733
v 0.811381 0.202455 0.322783
v 0.701416 0.303704 0.353007
v 0.715198 0.202455 0.335927
v 0.777235 0.303704 0.394387
v 0.765020 0.202455 0.377074
v 0.727867 0.483882 0.236904
v 0.842209 0.483877 0.286088
v 0.678824 0.483869 0.355930
v 0.792108 0.483865 0.401937
v 0.734360 0.798327 0.229964
v 0.854864 0.800921 0.292220
v 0.664582 0.797491 0.342767
v 0.793467 0.796485 0.411578
v 0.730461 1.050277 0.264813
v 0.815985 1.053500 0.282365
v 0.707469 1.045419 0.328475
v 0.799439 1.045630 0.352810
v 0.760091 1.106646 0.316645
vt 0.625000 0.500000
vt 0.625000 0.250000
vt 0.625000 0.250000
vt 0.625000 0.500000
vt 0.375000 0.750000
vt 0.625000 0.750000
vt 0.625000 1.000000
vt 0.375000 1.000000
vt 0.375000 0.000000
vt 0.625000 0.000000
vt 0.375000 0.250000
vt 0.125000 0.500000
vt 0.375000 0.500000
vt 0.125000 0.750000
vt 0.625000 1.000000
vt 0.625000 0.750000
vt 0.625000 0.750000
vt 0.625000 1.000000
vt 0.625000 0.000000
vt 0.625000 0.500000
vt 0.625000 0.250000
vt 0.625000 0.250000
vt 0.625000 0.500000
vt 0.625000 0.000000
vt 0.625000 0.000000
vt 0.625000 0.250000
vt 0.625000 0.750000
vt 0.625000 1.000000
vt 0.625000 1.000000
vt 0.625000 0.500000
vt 0.625000 0.750000
vn -0.8974 -0.1382 -0.4190
vn 0.8144 -0.1260 0.5665
vn -0.5432 -0.1447 0.8270
vn 0.0000 -1.0000 0.0000
vn 0.5744 -0.1159 -0.8103
vn -0.8402 -0.0943 -0.5340
vn 0.9034 -0.0308 0.4277
vn 0.8932 -0.0538 0.4464
vn -0.4192 -0.0353 0.9072
vn 0.4427 -0.1209 -0.8885
vn -0.8829 0.0878 -0.4613
vn -0.8896 -0.0256 -0.4560
vn 0.4288 -0.0142 -0.9033
vn -0.4284 -0.0037 0.9036
vn -0.2377 0.3772 0.8951
vn 0.3583 0.0765 -0.9305
vn -0.3824 0.1710 0.9080
vn 0.9166 0.1126 0.3837
vn 0.7427 0.6236 0.2441
vn -0.7598 0.6089 -0.2279
vn 0.1329 0.6321 -0.7634
usemtl Material.003
s off
f 72/108/70 76/109/70 82/110/70 80/111/70
f 75/112/71 74/113/71 78/114/71 79/115/71
f 79/116/72 78/117/72 76/109/72 77/118/72
f 77/119/73 73/120/73 75/112/73 79/121/73
f 73/120/74 72/108/74 74/113/74 75/112/74
f 77/118/75 76/109/75 72/108/75 73/120/75
f 83/122/76 81/123/76 85/124/76 87/125/76
f 78/114/77 74/113/77 81/123/77 83/122/77
f 76/109/78 78/117/78 83/126/78 82/110/78
f 74/113/79 72/108/79 80/111/79 81/123/79
f 84/127/80 86/128/80 90/129/80 88/130/80
f 80/111/81 82/110/81 86/128/81 84/127/81
f 81/123/82 80/111/82 84/127/82 85/124/82
f 82/110/83 83/126/83 87/131/83 86/128/83
f 90/129/84 91/132/84 92/133/84
f 85/124/85 84/127/85 88/130/85 89/134/85
f 86/128/86 87/131/86 91/132/86 90/129/86
f 87/125/87 85/124/87 89/134/87 91/135/87
f 91/135/88 89/134/88 92/136/88
f 88/130/89 90/129/89 92/137/89
f 89/134/90 88/130/90 92/138/90
o Cube.005
v 1.542832 0.372363 -1.441194
v 1.541053 0.260293 -1.411288
v 1.562936 0.372363 -1.291911
v 1.545128 0.260293 -1.296023
v 1.454377 0.372363 -1.392137
v 1.474359 0.260293 -1.396100
v 1.476654 0.372363 -1.250929
v 1.479960 0.260293 -1.286501
v 1.546688 0.571797 -1.500100
v 1.588846 0.571792 -1.303070
v 1.437860 0.571783 -1.415841
v 1.481392 0.571779 -1.223911
v 1.555386 0.919849 -1.500635
v 1.593066 0.922720 -1.280433
v 1.437167 0.918924 -1.448858
v 1.476027 0.917810 -1.210662
v 1.530292 1.198726 -1.463360
v 1.574283 1.202293 -1.339155
v 1.474182 1.193349 -1.414390
v 1.517952 1.193582 -1.274248
v 1.515904 1.261119 -1.365225
vt 0.625000 0.500000
vt 0.625000 0.250000
vt 0.625000 0.250000
vt 0.625000 0.500000
vt 0.375000 0.750000
vt 0.625000 0.750000
vt 0.625000 1.000000
vt 0.375000 1.000000
vt 0.375000 0.000000
vt 0.625000 0.000000
vt 0.375000 0.250000
vt 0.125000 0.500000
vt 0.375000 0.500000
vt 0.125000 0.750000
vt 0.625000 1.000000
vt 0.625000 0.750000
vt 0.625000 0.750000
vt 0.625000 1.000000
vt 0.625000 0.000000
vt 0.625000 0.500000
vt 0.625000 0.250000
vt 0.625000 0.250000
vt 0.625000 0.500000
vt 0.625000 0.000000
vt 0.625000 0.000000
vt 0.625000 0.250000
vt 0.625000 0.750000
vt 0.625000 1.000000
vt 0.625000 1.000000
vt 0.625000 0.500000
vt 0.625000 0.750000
vn -0.5501 -0.1861 -0.8141
vn 0.3109 -0.1852 0.9322
vn -0.9865 -0.1218 0.1097
vn 0.0000 -1.0000 0.0000
vn 0.9911 -0.0970 -0.0906
vn -0.3790 -0.1367 -0.9152
vn 0.5530 -0.0419 0.8321
vn 0.5256 -0.0741 0.8475
vn -0.9806 -0.0306 0.1937
vn 0.9789 -0.1040 -0.1760
vn -0.4999 0.1219 -0.8574
vn -0.5135 -0.0355 -0.8573
vn 0.9821 -0.0122 -0.1878
vn -0.9821 -0.0032 0.1881
vn -0.8948 0.3486 0.2789
vn 0.9705 0.0674 -0.2314
vn -0.9659 0.1498 0.2113
vn 0.5994 0.1483 0.7866
vn 0.4836 0.7080 0.5147
vn -0.5134 0.6881 -0.5128
vn 0.7406 0.6109 -0.2798
usemtl Material.004
s off
f 93/139/91 97/140/91 103/141/91 101/142/91
f 96/143/92 95/144/92 99/145/92 100/146/92
f 100/147/93 99/148/93 97/140/93 98/149/93
f 98/150/94 94/151/94 96/143/94 100/152/94
f 94/151/95 93/139/95 95/144/95 96/143/95
f 98/149/96 97/140/96 93/139/96 94/151/96
f 104/153/97 102/154/97 106/155/97 108/156/97
f 99/145/98 95/144/98 102/154/98 104/153/98
f 97/140/99 99/148/99 104/157/99 103/141/99
f 95/144/100 93/139/100 101/142/100 102/154/100
f 105/158/101 107/159/101 111/160/101 109/161/101
f 101/142/102 103/141/102 107/159/102 105/158/102
f 102/154/103 101/142/103 105/158/103 106/155/103
f 103/141/104 104/157/104 108/162/104 107/159/104
f 111/160/105 112/163/105 113/164/105
f 106/155/106 105/158/106 109/161/106 110/165/106
f 107/159/107 108/162/107 112/163/107 111/160/107
f 108/156/108 106/155/108 110/165/108 112/166/108
f 112/166/109 110/165/109 113/167/109
f 109/161/110 111/160/110 113/168/110
f 110/165/111 109/161/111 113/169/111
