# Blender v2.92.0 OBJ File: 'Seagull.blend'
# www.blender.org
mtllib Seagull.mtl
o Cube
v 1.419513 1.608534 -0.714671
v 1.419513 0.262930 -0.714671
v 1.419513 1.608534 0.137754
v 1.419513 0.262930 0.137754
v 0.227728 1.608534 -0.714671
v 0.227728 0.262930 -0.714671
v 0.227728 1.608534 0.137754
v 0.227728 0.262930 0.137754
v 1.419513 1.608534 -0.714671
v 1.419513 0.262930 -0.714671
v 1.419513 1.608534 0.137754
v 1.419513 0.262930 0.137754
v 0.227728 1.608534 -0.714671
v 0.227728 0.262930 -0.714671
v 0.227728 1.608534 0.137754
v 0.227728 0.262930 0.137754
v 1.419513 1.608534 -0.714671
v 1.419513 0.262930 -0.714671
v 1.419513 1.608534 0.137754
v 1.419513 0.262930 0.137754
v 0.227728 1.608534 -0.714671
v 0.227728 0.262930 -0.714671
v 0.227728 1.608534 0.137754
v 0.227728 0.262930 0.137754
v 1.419513 1.608534 0.137754
v 1.419513 0.262930 0.137754
v 0.227728 1.608534 0.137754
v 0.227728 0.262930 0.137754
v 1.419513 1.608534 0.137754
v 1.419513 0.262930 0.137754
v 0.227728 1.608534 0.137754
v 0.227728 0.262930 0.137754
v 1.419513 1.608534 0.137754
v 1.419513 0.262930 0.137754
v 0.227728 1.608534 0.137754
v 0.227728 0.262930 0.137754
v 1.212796 1.802685 0.887464
v 1.212796 0.861382 0.887464
v 0.434445 1.802685 0.887464
v 0.434445 0.861382 0.887464
v 1.212796 1.802685 0.887464
v 1.212796 0.861382 0.887464
v 0.434445 1.802685 0.887464
v 0.434445 0.861382 0.887464
v 1.212796 1.802685 0.887464
v 1.212796 0.861382 0.887464
v 0.434445 1.802685 0.887464
v 0.434445 0.861382 0.887464
v 1.152080 1.608554 1.304700
v 1.152080 1.055513 1.304700
v 0.532396 1.608554 1.304700
v 0.532396 1.055513 1.304700
v 1.152080 1.608554 1.304700
v 1.152080 1.055513 1.304700
v 0.532396 1.608554 1.304700
v 0.532396 1.055513 1.304700
v 1.152080 1.608554 1.304700
v 1.152080 1.055513 1.304700
v 0.532396 1.608554 1.304700
v 0.532396 1.055513 1.304700
v 0.860219 1.519781 1.658608
v 1.002458 1.354913 1.658608
v 0.682018 1.309154 1.658608
v 0.824258 1.144285 1.658608
v 0.860219 1.519781 1.658608
v 1.002458 1.354913 1.658608
v 0.682018 1.309154 1.658608
v 0.824258 1.144285 1.658608
v 0.860219 1.519781 1.658608
v 1.002458 1.354913 1.658608
v 0.682018 1.309154 1.658608
v 0.824258 1.144285 1.658608
v 0.851076 1.452722 1.837329
v 0.920994 1.346741 1.837329
v 0.763482 1.317326 1.837329
v 0.833400 1.211344 1.837329
v 0.851076 1.452722 1.837329
v 0.920994 1.346741 1.837329
v 0.763482 1.317326 1.837329
v 0.833400 1.211344 1.837329
v 0.851076 1.452722 1.837329
v 0.920994 1.346741 1.837329
v 0.763482 1.317326 1.837329
v 0.833400 1.211344 1.837329
v 0.851076 1.391529 1.900721
v 0.920994 1.308262 1.900721
v 0.763482 1.285151 1.900721
v 0.833400 1.201885 1.900721
v 0.851076 1.391529 1.900721
v 0.920994 1.308262 1.900721
v 0.763482 1.285151 1.900721
v 0.833400 1.201885 1.900721
v 0.851076 1.391529 1.900721
v 0.920994 1.308262 1.900721
v 0.763482 1.285151 1.900721
v 0.833400 1.201885 1.900721
v 1.266843 1.512718 -1.611826
v 1.266843 0.592995 -1.611826
v 0.380398 1.512718 -1.611826
v 0.380398 0.592995 -1.611826
v 1.038757 1.368633 -1.859668
v 1.038757 1.109404 -1.859668
v 0.608484 1.368633 -1.859668
v 0.608484 1.109404 -1.859668
v 1.140961 1.379317 -3.041979
v 1.140961 1.098720 -3.041979
v 0.506280 1.379317 -3.041979
v 0.506280 1.098720 -3.041979
v 1.368295 1.557969 -0.662965
v 2.593850 1.557969 -0.662965
v 1.368295 1.334402 -0.662965
v 2.593850 1.334402 -0.662965
v 1.368295 1.557969 0.103861
v 2.593850 1.557969 0.103861
v 1.368295 1.334402 0.103861
v 2.593850 1.334402 0.103861
v 3.274136 1.521775 -1.057176
v 3.274136 1.370595 -1.057176
v 3.274136 1.521775 -0.290350
v 3.274136 1.370595 -0.290350
v 0.227728 1.197996 -0.666293
v -0.953383 1.197996 -0.666293
v 0.227728 1.517030 -0.666293
v -0.953383 1.517030 -0.666293
v 0.227728 1.197996 0.100437
v -0.953383 1.197996 0.100437
v 0.227728 1.517030 0.100437
v -0.953383 1.517030 0.100437
v -1.923220 1.197996 -1.166653
v -1.923220 1.517030 -1.166653
v -1.923220 1.197996 -0.399923
v -1.923220 1.517030 -0.399923
vt 0.625000 0.500000
vt 0.625000 0.750000
vt 0.875000 0.750000
vt 0.875000 0.500000
vt 0.875000 0.750000
vt 0.625000 0.750000
vt 0.625000 0.750000
vt 0.875000 0.750000
vt 0.375000 0.000000
vt 0.375000 0.250000
vt 0.625000 0.250000
vt 0.625000 0.000000
vt 0.125000 0.500000
vt 0.125000 0.750000
vt 0.375000 0.750000
vt 0.375000 0.500000
vt 0.625000 0.500000
vt 0.875000 0.500000
vt 0.375000 0.750000
vt 0.625000 0.750000
vt 0.625000 0.750000
vt 0.375000 0.750000
vt 0.375000 0.000000
vt 0.375000 0.250000
vt 0.625000 0.250000
vt 0.625000 0.000000
vt 0.125000 0.500000
vt 0.125000 0.750000
vt 0.375000 0.750000
vt 0.375000 0.500000
vt 0.625000 0.500000
vt 0.875000 0.500000
vt 0.875000 0.750000
vt 0.375000 0.750000
vt 0.625000 0.750000
vt 0.375000 0.000000
vt 0.625000 0.000000
vt 0.625000 0.250000
vt 0.375000 0.250000
vt 0.125000 0.500000
vt 0.375000 0.500000
vt 0.125000 0.750000
vt 0.375000 0.500000
vt 0.625000 0.500000
vt 0.375000 0.000000
vt 0.625000 0.000000
vt 0.625000 0.000000
vt 0.375000 0.000000
vt 0.875000 0.750000
vt 0.875000 0.750000
vt 0.625000 0.750000
vt 0.125000 0.750000
vt 0.125000 0.750000
vt 0.375000 0.750000
vt 0.125000 0.750000
vt 0.625000 0.000000
vt 0.375000 0.000000
vt 0.375000 0.750000
vt 0.875000 0.750000
vt 0.125000 0.750000
vt 0.375000 0.000000
vt 0.625000 0.000000
vt 0.375000 0.000000
vt 0.625000 0.000000
vt 0.625000 0.000000
vt 0.375000 0.000000
vt 0.375000 0.750000
vt 0.125000 0.750000
vt 0.125000 0.750000
vt 0.375000 0.750000
vt 0.625000 0.000000
vt 0.375000 0.000000
vt 0.375000 0.750000
vt 0.125000 0.750000
vt 0.625000 0.750000
vt 0.375000 0.000000
vt 0.625000 0.000000
vt 0.625000 0.750000
vt 0.875000 0.750000
vt 0.875000 0.750000
vt 0.125000 0.750000
vt 0.375000 0.750000
vt 0.625000 0.000000
vt 0.375000 0.000000
vt 0.625000 0.750000
vt 0.875000 0.750000
vt 0.875000 0.750000
vt 0.625000 0.750000
vt 0.375000 0.750000
vt 0.125000 0.750000
vt 0.375000 0.750000
vt 0.625000 0.750000
vt 0.375000 0.000000
vt 0.625000 0.000000
vt 0.625000 0.750000
vt 0.875000 0.750000
vt 0.875000 0.750000
vt 0.125000 0.750000
vt 0.875000 0.750000
vt 0.625000 0.750000
vt 0.625000 0.750000
vt 0.875000 0.750000
vt 0.375000 0.750000
vt 0.625000 0.750000
vt 0.375000 0.750000
vt 0.875000 0.750000
vt 0.625000 0.750000
vt 0.625000 0.750000
vt 0.875000 0.750000
vt 0.625000 0.000000
vt 0.375000 0.000000
vt 0.125000 0.750000
vt 0.375000 0.750000
vt 0.375000 0.000000
vt 0.625000 0.000000
vt 0.125000 0.750000
vt 0.625000 0.750000
vt 0.375000 0.750000
vt 0.625000 0.750000
vt 0.875000 0.750000
vt 0.375000 0.750000
vt 0.375000 0.750000
vt 0.625000 0.750000
vt 0.125000 0.750000
vt 0.375000 0.750000
vt 0.875000 0.750000
vt 0.625000 0.000000
vt 0.375000 0.000000
vt 0.125000 0.750000
vt 0.625000 0.000000
vt 0.375000 0.000000
vt 0.125000 0.750000
vt 0.375000 0.000000
vt 0.625000 0.000000
vt 0.375000 0.750000
vt 0.375000 1.000000
vt 0.625000 1.000000
vt 0.375000 1.000000
vt 0.625000 1.000000
vt 0.625000 1.000000
vt 0.375000 1.000000
vt 0.875000 0.750000
vt 0.125000 0.750000
vt 0.875000 0.750000
vt 0.625000 0.000000
vt 0.375000 0.000000
vt 0.125000 0.750000
vt 0.625000 0.000000
vt 0.375000 0.000000
vt 0.125000 0.750000
vt 0.375000 0.000000
vt 0.625000 0.000000
vt 0.375000 0.250000
vt 0.625000 0.250000
vt 0.625000 0.250000
vt 0.375000 0.250000
vt 0.125000 0.500000
vt 0.875000 0.500000
vt 0.875000 0.500000
vt 0.625000 0.500000
vt 0.625000 0.500000
vt 0.875000 0.500000
vt 0.125000 0.500000
vt 0.375000 0.500000
vt 0.375000 0.250000
vt 0.625000 0.250000
vt 0.375000 0.500000
vt 0.125000 0.500000
vt 0.375000 0.000000
vt 0.625000 0.000000
vt 0.625000 0.250000
vt 0.375000 0.250000
vt 0.625000 0.500000
vt 0.375000 0.500000
vt 0.625000 0.750000
vt 0.375000 0.750000
vt 0.625000 1.000000
vt 0.375000 1.000000
vt 0.125000 0.500000
vt 0.125000 0.750000
vt 0.625000 0.500000
vt 0.625000 0.750000
vt 0.875000 0.500000
vt 0.875000 0.750000
vt 0.625000 0.000000
vt 0.625000 0.250000
vt 0.625000 1.000000
vt 0.375000 0.000000
vt 0.625000 0.000000
vt 0.625000 0.250000
vt 0.375000 0.250000
vt 0.625000 0.500000
vt 0.375000 0.500000
vt 0.625000 0.750000
vt 0.375000 0.750000
vt 0.625000 1.000000
vt 0.375000 1.000000
vt 0.125000 0.500000
vt 0.125000 0.750000
vt 0.625000 0.750000
vt 0.625000 1.000000
vt 0.625000 0.500000
vt 0.875000 0.500000
vt 0.875000 0.750000
vt 0.625000 0.250000
vt 0.625000 0.000000
vn 0.0000 -1.0000 0.0000
vn 0.0000 0.0000 1.0000
vn 1.0000 0.0000 0.0000
vn 0.0000 1.0000 0.0000
vn -1.0000 0.0000 0.0000
vn 0.9858 0.0000 -0.1678
vn 0.9640 0.0000 -0.2658
vn 0.0000 0.9681 -0.2507
vn 0.0000 0.7815 -0.6239
vn 0.9735 0.0000 -0.2285
vn 0.0000 0.9067 -0.4219
vn 0.0000 -0.7815 0.6239
vn -0.9640 0.0000 -0.2658
vn -0.9640 0.0000 0.2658
vn 0.0000 -0.9681 0.2507
vn 0.9640 0.0000 0.2658
vn -0.2302 0.8720 -0.4320
vn 0.8581 0.1700 -0.4846
vn -0.2302 0.8720 0.4320
vn 0.0000 -0.9067 0.4219
vn -0.9896 0.0000 -0.1440
vn -0.9735 0.0000 0.2285
vn 0.0000 -0.9067 -0.4219
vn 0.9896 0.0000 0.1440
vn 0.0000 0.9067 0.4219
vn 0.7674 -0.5894 -0.2524
vn 0.7477 0.5857 0.3128
vn 0.2302 -0.8720 0.4320
vn -0.8581 -0.1700 -0.4846
vn -0.8581 -0.1700 0.4846
vn 0.2302 -0.8720 -0.4320
vn 0.8581 0.1700 0.4846
vn 0.7287 0.5384 0.4233
vn 0.7433 -0.5386 -0.3967
vn -0.7287 -0.5384 -0.4233
vn -0.7674 0.5894 -0.2524
vn -0.7674 0.5894 0.2524
vn 0.7477 0.5857 -0.3128
vn 0.7674 -0.5894 0.2524
vn -0.7477 -0.5857 -0.3128
vn -0.7477 -0.5857 0.3128
vn 0.0000 0.0000 -1.0000
vn -0.7905 0.5728 0.2166
vn -0.7433 0.5386 0.3967
vn 0.7894 0.5833 0.1915
vn 0.7905 -0.5728 -0.2166
vn -0.7894 -0.5833 -0.1915
vn -0.7358 0.0000 -0.6772
vn -0.9858 0.0000 -0.1678
vn 0.0000 -0.9385 -0.3453
vn 0.0000 0.9943 -0.1062
vn 0.0000 1.0000 0.0090
vn 0.0000 -0.4327 -0.9015
vn 0.0000 0.8645 -0.5026
vn 0.7358 0.0000 -0.6772
vn 0.9963 0.0000 0.0861
vn -0.9963 0.0000 0.0861
vn 0.0000 -1.0000 0.0090
vn 0.5014 0.0000 0.8652
vn -0.5014 0.0000 -0.8652
vn 0.0531 0.9986 0.0000
vn 0.0531 -0.9986 0.0000
vn -0.4585 0.0000 0.8887
vn 0.4585 0.0000 -0.8887
usemtl Material
s off
f 1/1/1 3/2/1 7/3/1 5/4/1
f 15/5/2 11/6/2 29/7/2 31/8/2
f 8/9/3 6/10/3 5/11/3 7/12/3
f 6/13/4 8/14/4 4/15/4 2/16/4
f 2/16/5 4/15/5 3/2/5 1/1/5
f 6/10/2 2/16/2 1/1/2 5/11/2
f 9/17/1 11/6/1 15/5/1 13/18/1
f 20/19/2 19/20/2 33/21/2 34/22/2
f 16/23/3 14/24/3 13/25/3 15/26/3
f 14/27/4 16/28/4 12/29/4 10/30/4
f 10/30/5 12/29/5 11/6/5 9/17/5
f 14/24/2 10/30/2 9/17/2 13/25/2
f 17/31/4 21/32/4 23/33/4 19/20/4
f 3/2/2 4/15/2 26/34/2 25/35/2
f 24/36/5 23/37/5 21/38/5 22/39/5
f 22/40/1 18/41/1 20/19/1 24/42/1
f 18/41/3 17/31/3 19/20/3 20/19/3
f 17/31/6 18/41/6 98/43/6 97/44/6
f 28/45/7 27/46/7 39/47/7 40/48/7
f 33/21/8 35/49/8 47/50/8 45/51/8
f 26/34/9 28/52/9 40/53/9 38/54/9
f 4/15/2 8/14/2 28/52/2 26/34/2
f 24/42/2 20/19/2 34/22/2 36/55/2
f 16/23/2 15/26/2 31/56/2 32/57/2
f 11/6/2 12/29/2 30/58/2 29/7/2
f 7/3/2 3/2/2 25/35/2 27/59/2
f 19/20/2 23/33/2 35/49/2 33/21/2
f 12/29/2 16/28/2 32/60/2 30/58/2
f 8/9/2 7/12/2 27/46/2 28/45/2
f 23/37/2 24/36/2 36/61/2 35/62/2
f 44/63/10 43/64/10 55/65/10 56/66/10
f 42/67/11 44/68/11 56/69/11 54/70/11
f 40/48/10 39/47/10 51/71/10 52/72/10
f 30/58/9 32/60/9 44/68/9 42/67/9
f 32/57/7 31/56/7 43/64/7 44/63/7
f 36/55/12 34/22/12 46/73/12 48/74/12
f 25/35/13 26/34/13 38/54/13 37/75/13
f 35/62/14 36/61/14 48/76/14 47/77/14
f 29/7/13 30/58/13 42/67/13 41/78/13
f 27/59/15 25/35/15 37/75/15 39/79/15
f 34/22/16 33/21/16 45/51/16 46/73/16
f 31/8/15 29/7/15 41/78/15 43/80/15
f 54/70/17 56/69/17 68/81/17 66/82/17
f 52/72/18 51/71/18 63/83/18 64/84/18
f 57/85/19 59/86/19 71/87/19 69/88/19
f 48/74/20 46/73/20 58/89/20 60/90/20
f 37/75/21 38/54/21 50/91/21 49/92/21
f 47/77/22 48/76/22 60/93/22 59/94/22
f 41/78/21 42/67/21 54/70/21 53/95/21
f 39/79/23 37/75/23 49/92/23 51/96/23
f 46/73/24 45/51/24 57/85/24 58/89/24
f 43/80/23 41/78/23 53/95/23 55/97/23
f 38/54/11 40/53/11 52/98/11 50/91/11
f 45/51/25 47/50/25 59/86/25 57/85/25
f 67/99/26 65/100/26 77/101/26 79/102/26
f 70/103/27 69/88/27 81/104/27 82/105/27
f 63/106/26 61/107/26 73/108/26 75/109/26
f 56/66/18 55/65/18 67/110/18 68/111/18
f 60/90/28 58/89/28 70/103/28 72/112/28
f 49/92/29 50/91/29 62/113/29 61/107/29
f 59/94/30 60/93/30 72/114/30 71/115/30
f 53/95/29 54/70/29 66/82/29 65/100/29
f 51/96/31 49/92/31 61/107/31 63/106/31
f 58/89/32 57/85/32 69/88/32 70/103/32
f 55/97/31 53/95/31 65/100/31 67/99/31
f 50/91/17 52/98/17 64/116/17 62/113/17
f 82/105/33 81/104/33 93/117/33 94/118/33
f 75/109/34 73/108/34 85/119/34 87/120/34
f 77/101/35 78/121/35 90/122/35 89/123/35
f 62/113/36 64/116/36 76/124/36 74/125/36
f 69/88/37 71/87/37 83/126/37 81/104/37
f 64/84/38 63/83/38 75/127/38 76/128/38
f 66/82/36 68/81/36 80/129/36 78/121/36
f 68/111/38 67/110/38 79/130/38 80/131/38
f 72/112/39 70/103/39 82/105/39 84/132/39
f 61/107/40 62/113/40 74/125/40 73/108/40
f 71/115/41 72/114/41 84/133/41 83/134/41
f 65/100/40 66/82/40 78/121/40 77/101/40
f 86/135/42 88/136/42 87/137/42 85/119/42
f 90/122/42 92/138/42 91/139/42 89/123/42
f 94/118/2 93/117/2 95/140/2 96/141/2
f 79/102/34 77/101/34 89/123/34 91/142/34
f 74/125/43 76/124/43 88/143/43 86/135/43
f 81/104/44 83/126/44 95/144/44 93/117/44
f 76/128/45 75/127/45 87/145/45 88/146/45
f 78/121/43 80/129/43 92/147/43 90/122/43
f 80/131/45 79/130/45 91/148/45 92/149/45
f 84/132/46 82/105/46 94/118/46 96/150/46
f 73/108/35 74/125/35 86/135/35 85/119/35
f 83/134/47 84/133/47 96/151/47 95/152/47
f 100/153/48 99/154/48 103/155/48 104/156/48
f 22/39/49 21/38/49 99/154/49 100/153/49
f 18/41/50 22/40/50 100/157/50 98/43/50
f 21/32/51 17/31/51 97/44/51 99/158/51
f 103/159/52 101/160/52 105/161/52 107/162/52
f 98/43/53 100/157/53 104/163/53 102/164/53
f 99/158/54 97/44/54 101/160/54 103/159/54
f 97/44/55 98/43/55 102/164/55 101/160/55
f 108/165/42 107/166/42 105/161/42 106/167/42
f 101/160/56 102/164/56 106/167/56 105/161/56
f 104/156/57 103/155/57 107/166/57 108/165/57
f 102/164/58 104/163/58 108/168/58 106/167/58
f 109/169/42 110/170/42 112/171/42 111/172/42
f 111/172/1 112/171/1 116/173/1 115/174/1
f 115/174/2 116/173/2 114/175/2 113/176/2
f 113/176/4 114/175/4 110/177/4 109/178/4
f 111/179/5 115/174/5 113/176/5 109/180/5
f 114/175/59 116/173/59 120/181/59 119/182/59
f 120/181/3 118/183/3 117/184/3 119/182/3
f 112/171/60 110/170/60 117/185/60 118/186/60
f 110/177/61 114/175/61 119/182/61 117/187/61
f 116/173/62 112/171/62 118/186/62 120/181/62
f 121/188/42 122/189/42 124/190/42 123/191/42
f 123/191/4 124/190/4 128/192/4 127/193/4
f 127/193/2 128/192/2 126/194/2 125/195/2
f 125/195/1 126/194/1 122/196/1 121/197/1
f 123/198/3 127/193/3 125/195/3 121/199/3
f 122/196/1 126/194/1 131/200/1 129/201/1
f 132/202/5 130/203/5 129/204/5 131/200/5
f 128/192/4 124/190/4 130/205/4 132/202/4
f 126/194/63 128/192/63 132/202/63 131/200/63
f 124/190/64 122/189/64 129/206/64 130/205/64
